{"title":"Black Hawk Down[DvDrip Avi]H264 400p[AC3-2ch]Greek Subs Omifast","uid":5654621,"size":1070684787,"categoryP":"video","categoryS":"movies","magnet":"?xt=urn:btih:9c513488860bc96ce012862d5741aba5a221d4bd&amp;dn=Black+Hawk+Down%5BDvDrip+Avi%5DH264+400p%5BAC3-2ch%5DGreek+Subs+Omifast&amp;tr=udp%3A%2F%2Ftracker.openbittorrent.com%3A80&amp;tr=udp%3A%2F%2Fopen.demonii.com%3A1337&amp;tr=udp%3A%2F%2Ftracker.coppersurfer.tk%3A6969&amp;tr=udp%3A%2F%2Fexodus.desync.com%3A6969","seeders":7,"leechers":4,"uploader":"OmifastGR","files":-1,"time":1277747203,"description":"Enhance Definition\n\nDolby Digital Stereo\n\nAdvanced Video Coding - H.264/MPEG-4 AVC\n\n----------------------------------------------------------\n\nBlack Hawk Down (2001) &lt;a href=&quot;\nhttp://www.imdb.com/title/tt0265086/&quot; rel=&quot;nofollow&quot; target=&quot;_NEW&quot;&gt;\nhttp://www.imdb.com/title/tt0265086/&lt;/a&gt;\n\n\nThe true story of the United States' involvement in Somalia during an ill-fated humanitarian mission. On October 3, 1993, U.S. soldiers entered Somalia on an exercise that was supposed to take less than an hour. The mission turned into a nightlong battle against thousands of heavily armed Somalians. Eighteen U.S. soldiers and more than 500 Somalians were killed as a result of this conflict. \n\n\nStarring: Josh Hartnett, Ewan McGregor, Tom Sizemore, Eric Bana, William Fichtner\n\nDirector: Ridley Scott\n\n-----------------------------------------------------------\n\nFormat                           : AVI\nFormat/Info                      : Audio Video Interleave\nFile size                        : 995 MiB\nDuration                         : 2h 24mn\nOverall bit rate                 : 964 Kbps\n\nVideo\nID                               : 0\nFormat                           : AVC\nFormat/Info                      : Advanced Video Codec\nFormat profile                   : &lt;a class=&quot;__cf_email__&quot; href=&quot;/cdn-cgi/l/email-protection&quot; data-cfemail=&quot;ade0ccc4c3ede19e839d&quot;&gt;[email&amp;#160;protected]&lt;/a&gt;&lt;script cf-hash='f9e31' type=&quot;text/javascript&quot;&gt;\n/* &lt;![CDATA[ */!function(){try{var t=&quot;currentScript&quot;in document?document.currentScript:function(){for(var t=document.getElementsByTagName(&quot;script&quot;),e=t.length;e--;)if(t[e].getAttribute(&quot;cf-hash&quot;))return t[e]}();if(t&amp;&amp;t.previousSibling){var e,r,n,i,c=t.previousSibling,a=c.getAttribute(&quot;data-cfemail&quot;);if(a){for(e=&quot;&quot;,r=parseInt(a.substr(0,2),16),n=2;a.length-n;n+=2)i=parseInt(a.substr(n,2),16)^r,e+=String.fromCharCode(i);e=document.createTextNode(e),c.parentNode.replaceChild(e,c)}}}catch(u){}}();/* ]]&gt; */&lt;/script&gt;\nFormat settings, CABAC           : Yes\nFormat settings, ReFrames        : 2 frames\nCodec ID                         : H264\nDuration                         : 2h 23mn\nBit rate                         : 764 Kbps\nWidth                            : 720 pixels\nHeight                           : 400 pixels\nDisplay aspect ratio             : 16:9\nFrame rate                       : 25.000 fps\nResolution                       : 8 bits\nColorimetry                      : 4:2:0\nScan type                        : Progressive\nBits/(Pixel*Frame)               : 0.106\nStream size                      : 785 MiB (79%)\nWriting library                  : x264 core 65\n\nAudio\nID                               : 1\nFormat                           : AC-3\nFormat/Info                      : Audio Coding 3\nCodec ID                         : 2000\nDuration                         : 2h 24mn\nBit rate mode                    : Constant\nBit rate                         : 192 Kbps\nChannel(s)                       : 2 channels\nChannel positions                : L R\nSampling rate                    : 48.0 KHz\nStream size                      : 198 MiB (20%)\nAlignment                        : Aligned on interleaves\nInterleave, duration             : 32 ms (0.80 video frame)\nInterleave, preload duration     : 2592 ms\n\n\n---------------------------------------------------------------\n\nDownload Sample\n\nDownload Official Trailer\n\n!","torrent":{"xt":"urn:btih:9c513488860bc96ce012862d5741aba5a221d4bd","amp;dn":"Black+Hawk+Down%5BDvDrip+Avi%5DH264+400p%5BAC3-2ch%5DGreek+Subs+Omifast","amp;tr":["udp%3A%2F%2Ftracker.openbittorrent.com%3A80","udp%3A%2F%2Fopen.demonii.com%3A1337","udp%3A%2F%2Ftracker.coppersurfer.tk%3A6969","udp%3A%2F%2Fexodus.desync.com%3A6969"],"infoHash":"9c513488860bc96ce012862d5741aba5a221d4bd","infoHashBuffer":{"type":"Buffer","data":[156,81,52,136,134,11,201,108,224,18,134,45,87,65,171,165,162,33,212,189]},"announce":[],"urlList":[]}}